<svg width="101" height="24" viewBox="0 0 101 24" fill="none" xmlns="http://www.w3.org/2000/svg">
<g clip-path="url(#clip0_26836_1421)">
<path d="M3.92645 10.5124C3.38297 10.3213 2.70036 10.6601 2.25254 11.0337C2.20906 11.0728 2.15254 11.0858 2.10036 11.0641C2.04819 11.038 2.01775 10.9859 2.01775 10.9251C2.01775 10.9251 2.00036 10.6688 2.00036 10.6601C1.98732 10.5168 2.08297 10.4386 2.08297 10.4386C3.36123 9.24401 3.96558 8.13632 3.93514 7.05469C3.93514 6.85053 3.89167 6.59858 3.72645 6.52908C3.53514 6.45089 3.18297 6.63333 2.80036 7.00257L2.7221 7.0851L2.0308 7.8279C1.90471 7.97994 1.83949 8.16238 1.81775 8.31876C1.60471 10.356 1.79601 12.541 2.36123 14.6261C2.39167 14.713 2.41341 14.7477 2.46123 14.7738C2.51341 14.7998 2.55688 14.7825 2.55688 14.7825L3.38732 14.3741L3.40906 14.3655C4.05688 14.0657 5.09601 13.336 4.78732 11.8243C4.63514 11.1032 4.34384 10.6601 3.91775 10.5168L3.92645 10.5124Z" fill="#828282"/>
<path d="M12.013 0C5.37826 0 0 5.37339 0 12.0022C0 18.631 5.37826 24 12.013 24C18.6478 24 24.0217 18.6266 24.0217 12.0022C24.0217 5.37774 18.6435 0 12.013 0ZM7.02174 12.2281C6.9913 12.5843 6.93043 12.9014 6.84783 13.1881C6.68261 13.7441 6.36087 14.2349 5.91739 14.6085C5.5913 14.8865 5.24783 15.0255 4.88696 15.1689L4.38261 15.3904L3.96957 15.5729L3.54348 15.764L3.43478 15.8205C3.02609 16.0333 2.55652 16.2722 2.06522 16.0767C1.6 15.89 1.41304 15.3861 1.35217 15.1776C0.83913 13.3922 0.691304 11.3853 0.921739 9.36977C1.06522 8.18824 1.81739 7.05014 2.01304 6.80688L2.72609 6.00326C3.92174 4.78697 4.66956 4.70878 5.08261 4.86081C5.48696 5.00851 5.75217 5.43855 5.79565 6.0076C5.80435 6.09014 5.8087 6.17701 5.8087 6.25955C5.8087 7.18045 5.37826 8.08833 4.5913 8.9267C5.02174 8.86588 5.45217 8.9267 5.83043 9.15258C6.22609 9.38715 6.74783 9.8867 6.97391 10.9336C7.07391 11.4071 7.04783 11.9457 7.02609 12.2237L7.02174 12.2281ZM17.7826 10.2603C17.7826 10.5252 17.713 10.9032 17.3739 11.1986C16.6087 11.8588 15.6174 12.3236 14.4261 12.5799C12.4043 13.01 10.5087 12.7146 9.08696 11.7589C7.87391 10.9379 7.0913 9.68688 6.81739 8.14045C6.54783 6.59837 6.9 5.07801 7.80869 3.85738C8.67391 2.69321 9.98261 1.90262 11.4957 1.62896C12.5043 1.45086 13.5391 1.51602 14.5348 1.83747C14.6435 1.87222 15.0304 2.04163 15.2609 2.8409C15.3348 3.17538 14.9957 3.07548 14.9957 3.07548C14.1957 2.74534 13.313 2.63674 12.4391 2.76272C11.2957 2.93647 10.3478 3.48814 9.76522 4.31783C9.1913 5.13882 9 6.19873 9.23043 7.30208C9.76087 9.85195 11.9043 11.1508 14.687 10.6165C15.7739 10.4036 16.6435 9.94317 17.213 9.2829C17.2304 9.26118 17.3174 9.16996 17.4 9.16996C17.513 9.16996 17.587 9.21774 17.6304 9.38281C17.7957 10.0561 17.7826 10.269 17.7826 10.269V10.2603Z" fill="#828282"/>
<path d="M98.3904 3.95728V9.31329C97.66 8.8485 96.7078 8.53574 95.2774 8.53574C94.16 8.53574 92.9165 8.78334 92.2035 9.16126C91.9774 9.27854 91.773 9.4132 91.5948 9.56524C90.6165 10.3732 90.26 11.5851 90.1426 12.8405C90.0948 13.327 90.0817 13.6789 90.0817 14.1567C90.0817 15.8552 90.2382 17.7839 91.5948 18.9089C92.3339 19.5258 93.5296 19.8994 94.8774 19.8994H97.5426C98.2861 19.882 100.995 19.6604 100.995 17.2539V3.95728H98.3861H98.3904ZM98.3904 16.3287C98.3904 17.4277 97.7035 18.127 95.5991 18.127C93.16 18.127 92.7904 16.2766 92.7904 14.2914C92.7904 12.3062 93.1643 10.4253 95.5991 10.4253C98.0339 10.4253 98.3904 12.3062 98.3904 14.2914V16.333V16.3287Z" fill="#828282"/>
<path d="M39.0428 11.4723C40.9776 10.9641 41.995 9.7304 41.995 7.9494C41.995 6.03375 40.5124 3.58813 35.295 3.58813H33.7602C32.9602 3.60117 30.0428 3.82705 30.0428 6.22922V17.7927C30.0428 20.5771 33.9602 20.4381 33.9602 20.4381H35.6602C40.7776 20.4381 42.6341 18.0403 42.6341 15.6728C42.6341 13.3054 40.9168 11.9154 39.0472 11.4766L39.0428 11.4723ZM35.3994 18.4008H33.7037C33.3255 18.4008 33.0211 18.1358 32.982 17.797V6.22922C33.0255 5.8904 33.3298 5.62542 33.7037 5.62542H35.5385C37.5733 5.62542 38.8342 6.4942 38.8342 8.03194C38.8342 10.534 36.4472 11.203 34.2385 11.2421C34.1385 11.2421 34.0559 11.3159 34.0559 11.4071V11.8502C34.0559 11.9501 34.1385 12.0196 34.2385 12.0196C36.4342 12.0587 39.3298 12.4714 39.3298 15.5642C39.3298 17.5885 37.4689 18.4008 35.3994 18.4008Z" fill="#828282"/>
<path d="M56.4483 4.81737C55.1005 4.08325 53.5179 3.67493 51.8223 3.67493C46.9092 3.67493 43.4744 7.10226 43.4744 12.0065C43.4744 16.9195 46.9049 20.3468 51.8223 20.3468C53.5179 20.3468 55.1005 19.9341 56.4483 19.2C56.7875 18.9915 57.1309 18.5354 57.1309 17.4233V16.75C57.1309 16.5937 57.0049 16.4677 56.8483 16.4677C56.7962 16.4677 56.7483 16.4764 56.7092 16.5068C55.557 17.3147 54.3831 17.8751 52.744 17.9403C48.9483 18.0836 46.5353 15.8509 46.5353 12.0109C46.5353 8.16651 48.9483 5.93375 52.744 6.0771C54.3831 6.13791 55.557 6.69828 56.7092 7.51058C56.7527 7.54099 56.7962 7.54968 56.8483 7.54968C57.0049 7.54968 57.1309 7.4237 57.1309 7.26732V6.59402C57.1309 5.48199 56.7875 5.02153 56.4483 4.81737Z" fill="#828282"/>
<path d="M68.4342 9.44373C67.4124 8.88771 66.2037 8.57495 64.9081 8.57495C64.2472 8.57495 63.6298 8.65314 63.0472 8.80518C60.4559 9.48717 58.7603 11.4723 58.7559 14.3002C58.7559 17.1281 60.4559 19.1176 63.0472 19.7996C63.6255 19.9516 64.2472 20.0298 64.9081 20.0298C66.2081 20.0298 67.4168 19.717 68.4342 19.161C68.6168 19.0394 68.9342 18.7397 68.9342 18.1185V17.2236C68.9342 17.102 68.8342 17.0021 68.7081 17.0021C68.6603 17.0021 68.6255 17.0108 68.5907 17.0369C67.8255 17.6016 66.6298 17.9187 65.7559 17.9621C64.7864 18.0142 63.6211 17.8535 62.9124 17.3366C61.9298 16.6198 61.3516 15.7511 61.3516 14.3045C61.3516 12.9883 61.9168 11.9762 62.9124 11.2769C63.6733 10.7382 64.7907 10.5992 65.7559 10.6513C66.6342 10.6948 67.8255 11.0162 68.5907 11.5766C68.6255 11.5983 68.6646 11.6113 68.7081 11.6113C68.8298 11.6113 68.9342 11.5114 68.9342 11.3898V10.4906C68.9342 9.86509 68.6168 9.5697 68.4342 9.44807V9.44373Z" fill="#828282"/>
<path d="M75.2569 8.56191C75.1612 8.56191 75.0612 8.56191 74.9569 8.56191C74.2264 8.56191 72.5873 8.64444 71.2482 9.48282C71.0699 9.60444 70.7525 9.8868 70.7525 10.508V11.3246C70.7525 11.4506 70.8047 11.5331 70.9308 11.5462C70.9916 11.5549 71.0482 11.5331 71.096 11.5114C71.6829 11.1769 72.3569 10.938 73.0482 10.7686C73.7264 10.6035 74.3482 10.5253 74.8569 10.534C77.0743 10.5558 78.0177 11.2117 78.0177 12.8624V13.0101C78.0177 13.0101 76.396 12.9406 75.2612 12.9796C70.8438 13.1447 69.9177 14.9561 69.8134 16.2463C69.7308 17.254 70.1395 18.2053 70.8569 18.7961C71.6786 19.4694 72.8656 19.8995 74.4264 19.8995H77.1264C77.8699 19.8821 80.5786 19.6606 80.5786 17.2497V13.0709C80.5786 10.1474 78.7569 8.63576 75.2569 8.55322V8.56191ZM78.0134 16.3244C78.0134 17.7753 76.896 18.0533 75.2569 18.1445C75.1438 18.1489 75.0221 18.1532 74.9047 18.1532C73.2047 18.1532 72.4308 17.5798 72.4308 16.5634C72.4308 15.4644 73.1308 14.9431 75.2525 14.7867C76.4308 14.6998 78.009 14.8258 78.009 14.8258V16.3244H78.0134Z" fill="#828282"/>
<path d="M89.013 8.58345C85.5696 8.28807 82.0391 9.6173 82.0391 12.3018V19.63H84.7435V12.8969C84.7435 10.5469 87.6869 10.5339 89.4609 10.5252C89.613 10.5252 89.7174 10.4035 89.7174 10.2515V9.17422C89.7174 8.71811 89.413 8.61386 89.013 8.57911V8.58345Z" fill="#828282"/>
</g>
<defs>
<clipPath id="clip0_26836_1421">
<rect width="101" height="24" fill="white"/>
</clipPath>
</defs>
</svg>
