<svg width="118" height="28" viewBox="0 0 118 28" fill="none" xmlns="http://www.w3.org/2000/svg">
<g clip-path="url(#clip0_26703_879)">
<path d="M28.065 14.0025C28.065 21.7361 21.7815 28 14.035 28C6.28859 28 0 21.731 0 14.0025C0 6.27403 6.28351 0 14.035 0C21.7866 0 28.065 6.26896 28.065 14.0025Z" fill="#FA3246"/>
<path d="M6.80757 10.683C6.36564 10.4195 5.86276 10.3435 5.35987 10.4195C6.27929 9.44138 6.78217 8.37713 6.78217 7.30781C6.78217 7.21152 6.78217 7.11016 6.76693 7.01387C6.71614 6.34491 6.40628 5.84319 5.93387 5.67595C5.45131 5.49858 4.57761 5.5898 3.18071 7.0088L2.34765 7.94636C2.11906 8.22509 1.24029 9.55288 1.07266 10.9364C0.803438 13.2879 0.976146 15.6293 1.57554 17.7122C1.64666 17.9554 1.87016 18.5433 2.4086 18.7612C2.9826 18.9893 3.5312 18.7156 4.00869 18.4622L4.13568 18.3963L4.63349 18.1733L5.11605 17.9605L5.70529 17.702C6.1269 17.5297 6.52311 17.3675 6.90916 17.0483C7.42729 16.6124 7.80318 16.0398 7.99621 15.3911C8.0978 15.0515 8.16383 14.6866 8.19939 14.2711C8.22987 13.9467 8.26035 13.3183 8.13844 12.7659C7.87429 11.5496 7.26474 10.9668 6.80249 10.6881L6.80757 10.683ZM2.33749 12.4365L2.35781 12.7456C2.35781 12.8166 2.39336 12.8774 2.45432 12.9078C2.5102 12.9331 2.58131 12.9179 2.63211 12.8723C3.15531 12.4365 3.95281 12.0412 4.58777 12.2642C5.08557 12.4365 5.42591 12.9483 5.6037 13.7896C5.96943 15.5532 4.75032 16.4046 3.99345 16.7543L3.96805 16.7645L2.99784 17.2408C2.99784 17.2408 2.94197 17.2611 2.88609 17.2307C2.82513 17.2003 2.80482 17.1598 2.76926 17.0584C2.1089 14.6258 1.8854 12.0767 2.1343 9.69984C2.1597 9.5174 2.2359 9.30455 2.38321 9.12717L3.19087 8.26057L3.2823 8.16428C3.72931 7.73351 4.13568 7.52066 4.36426 7.61188C4.55729 7.69297 4.60301 7.9869 4.60809 8.22509C4.64364 9.49206 3.9325 10.7793 2.44416 12.173C2.44416 12.173 2.33241 12.2642 2.34765 12.4314L2.33749 12.4365Z" fill="white"/>
<path d="M17.8214 3.30925C17.5471 2.37676 17.1001 2.17911 16.9731 2.13857C15.8098 1.76862 14.6009 1.6926 13.4224 1.89531C11.6547 2.21966 10.1257 3.14201 9.11487 4.49513C8.05323 5.9192 7.64178 7.69803 7.95672 9.49205C8.27673 11.2962 9.19107 12.7558 10.6083 13.7136C12.2693 14.8336 14.4841 15.1731 16.8461 14.6714C18.2379 14.3724 19.3961 13.8302 20.2901 13.0598C20.6914 12.7152 20.7676 12.2743 20.7676 11.9652C20.7676 11.9652 20.7828 11.7169 20.5898 10.9313C20.539 10.7388 20.4526 10.683 20.3206 10.683C20.224 10.683 20.1224 10.7945 20.1021 10.8148C19.4367 11.5851 18.4208 12.1223 17.1509 12.3706C13.8999 12.994 11.3956 11.4787 10.7759 8.50382C10.5118 7.21658 10.7302 5.98002 11.4007 5.02219C12.0763 4.05423 13.1887 3.41061 14.5247 3.20789C15.5457 3.06092 16.5769 3.18762 17.5115 3.57278C17.5115 3.57278 17.9077 3.68427 17.8214 3.29911V3.30925Z" fill="white"/>
<path d="M114.951 4.61682V10.8655C114.098 10.3232 112.986 9.95836 111.314 9.95836C110.009 9.95836 108.556 10.2472 107.723 10.6881C107.459 10.825 107.22 10.9821 107.012 11.1594C105.869 12.1021 105.452 13.516 105.315 14.9806C105.259 15.5482 105.244 15.9587 105.244 16.5162C105.244 18.4977 105.427 20.7479 107.012 22.0604C107.875 22.7801 109.272 23.2159 110.847 23.2159H113.961C114.829 23.1956 117.994 22.9372 117.994 20.1296V4.61682H114.946H114.951ZM114.951 19.0501C114.951 20.3323 114.149 21.1482 111.69 21.1482C108.841 21.1482 108.409 18.9893 108.409 16.6733C108.409 14.3573 108.846 12.1629 111.69 12.1629C114.535 12.1629 114.951 14.3573 114.951 16.6733V19.0552V19.0501Z" fill="#323232"/>
<path d="M45.6145 13.3843C47.8749 12.7914 49.0635 11.3521 49.0635 9.2743C49.0635 7.03937 47.3314 4.18616 41.2358 4.18616H39.4427C38.508 4.20136 35.0996 4.46489 35.0996 7.26742V20.7581C35.0996 24.0066 39.6764 23.8444 39.6764 23.8444H41.6625C47.6412 23.8444 49.8102 21.047 49.8102 18.285C49.8102 15.523 47.8038 13.9013 45.6195 13.3894L45.6145 13.3843ZM41.3577 21.4676H39.3767C38.9347 21.4676 38.5792 21.1585 38.5334 20.7632V7.26742C38.5842 6.87213 38.9398 6.56299 39.3767 6.56299H41.5203C43.8975 6.56299 45.3706 7.57656 45.3706 9.37059C45.3706 12.2897 42.5819 13.0701 40.0015 13.1157C39.8846 13.1157 39.7881 13.2019 39.7881 13.3083V13.8253C39.7881 13.9418 39.8846 14.0229 40.0015 14.0229C42.5667 14.0685 45.9497 14.55 45.9497 18.1583C45.9497 20.5199 43.7756 21.4676 41.3577 21.4676Z" fill="#323232"/>
<path d="M65.9496 5.62027C64.3749 4.76379 62.526 4.28741 60.5449 4.28741C54.8049 4.28741 50.792 8.28597 50.792 14.0076C50.792 19.7394 54.7998 23.7379 60.5449 23.7379C62.526 23.7379 64.3749 23.2565 65.9496 22.4C66.3458 22.1567 66.7471 21.6246 66.7471 20.3272V19.5417C66.7471 19.3593 66.5998 19.2123 66.417 19.2123C66.356 19.2123 66.3001 19.2224 66.2544 19.2579C64.9083 20.2005 63.5368 20.8543 61.6218 20.9303C57.1873 21.0976 54.3681 18.4927 54.3681 14.0127C54.3681 9.5276 57.1873 6.92271 61.6218 7.08995C63.5368 7.1609 64.9083 7.81466 66.2544 8.76235C66.3052 8.79782 66.356 8.80796 66.417 8.80796C66.5998 8.80796 66.7471 8.66099 66.7471 8.47855V7.69303C66.7471 6.39565 66.3458 5.85846 65.9496 5.62027Z" fill="#323232"/>
<path d="M79.9528 11.0176C78.7591 10.369 77.3469 10.0041 75.8332 10.0041C75.0611 10.0041 74.3398 10.0953 73.6591 10.2727C70.6316 11.0683 68.6506 13.3843 68.6455 16.6835C68.6455 19.9827 70.6316 22.3038 73.6591 23.0995C74.3347 23.2768 75.0611 23.3681 75.8332 23.3681C77.352 23.3681 78.7641 23.0032 79.9528 22.3545C80.1661 22.2126 80.5369 21.8629 80.5369 21.1382V20.0942C80.5369 19.9523 80.4201 19.8357 80.2728 19.8357C80.2169 19.8357 80.1763 19.8459 80.1356 19.8763C79.2416 20.5351 77.8447 20.9051 76.8237 20.9557C75.691 21.0166 74.3296 20.8291 73.5016 20.226C72.3536 19.3898 71.6781 18.3762 71.6781 16.6886C71.6781 15.153 72.3384 13.9722 73.5016 13.1563C74.3906 12.5279 75.696 12.3657 76.8237 12.4265C77.8498 12.4772 79.2416 12.8522 80.1356 13.506C80.1763 13.5313 80.222 13.5465 80.2728 13.5465C80.415 13.5465 80.5369 13.43 80.5369 13.2881V12.239C80.5369 11.5092 80.1661 11.1646 79.9528 11.0227V11.0176Z" fill="#323232"/>
<path d="M87.9238 9.98889C87.812 9.98889 87.6952 9.98889 87.5733 9.98889C86.7199 9.98889 84.8049 10.0852 83.2403 11.0633C83.0321 11.2052 82.6613 11.5346 82.6613 12.2593V13.2121C82.6613 13.359 82.7222 13.4553 82.8695 13.4705C82.9406 13.4807 83.0067 13.4553 83.0626 13.43C83.7483 13.0398 84.5356 12.761 85.3433 12.5634C86.1357 12.3708 86.8621 12.2796 87.4564 12.2897C90.047 12.315 91.1493 13.0803 91.1493 15.0061V15.1784C91.1493 15.1784 89.2546 15.0973 87.9288 15.1429C82.7679 15.3355 81.686 17.4488 81.5641 18.954C81.4675 20.1297 81.945 21.2396 82.7832 21.9288C83.7432 22.7143 85.13 23.216 86.9535 23.216H90.108C90.9766 23.1958 94.1412 22.9373 94.1412 20.1246V15.2493C94.1412 11.8387 92.0129 10.075 87.9238 9.97876V9.98889ZM91.1442 19.0452C91.1442 20.7379 89.8388 21.0622 87.9238 21.1686C87.7917 21.1737 87.6495 21.1788 87.5123 21.1788C85.5262 21.1788 84.622 20.5098 84.622 19.3239C84.622 18.0417 85.4398 17.4336 87.9187 17.2512C89.2953 17.1498 91.1392 17.2968 91.1392 17.2968V19.0452H91.1442Z" fill="#323232"/>
<path d="M103.995 10.014C99.9723 9.66941 95.8477 11.2202 95.8477 14.3521V22.9016H99.0072V15.0464C99.0072 12.3047 102.446 12.2895 104.519 12.2794C104.696 12.2794 104.818 12.1375 104.818 11.9601V10.7033C104.818 10.1711 104.463 10.0495 103.995 10.009V10.014Z" fill="#323232"/>
</g>
<defs>
<clipPath id="clip0_26703_879">
<rect width="118" height="28" fill="white"/>
</clipPath>
</defs>
</svg>
