<svg width="22" height="23" viewBox="0 0 22 23" fill="none" xmlns="http://www.w3.org/2000/svg">
<path d="M10.0397 19.1795C15.0875 19.1795 19.1795 15.0875 19.1795 10.0397C19.1795 4.99193 15.0875 0.899902 10.0397 0.899902C4.99193 0.899902 0.899902 4.99193 0.899902 10.0397C0.899902 15.0875 4.99193 19.1795 10.0397 19.1795Z" stroke="#191B1E" stroke-width="1.8" stroke-miterlimit="10"/>
<path d="M10.7444 5.633L11.3762 6.90313C11.7641 7.68312 12.3962 8.31513 13.1762 8.70311L14.4463 9.33489C15.0227 9.6295 15.0227 10.4493 14.4463 10.7439L13.1762 11.3757C12.3962 11.7637 11.7641 12.3957 11.3762 13.1757L10.7444 14.4458C10.4498 15.0222 9.62999 15.0222 9.33537 14.4458L8.7036 13.1757C8.31562 12.3957 7.68361 11.7637 6.90362 11.3757L5.63349 10.7439C5.05707 10.4493 5.05707 9.6295 5.63349 9.33489L6.90362 8.70311C7.68361 8.31514 8.31562 7.68312 8.7036 6.90313L9.33537 5.633C9.62999 5.05658 10.4498 5.05658 10.7444 5.633Z" stroke="#191B1E" stroke-width="1.8" stroke-linecap="round" stroke-linejoin="round"/>
<path d="M16.7388 17.5991L20.9001 21.7497" stroke="#191B1E" stroke-width="1.8" stroke-linecap="round" stroke-linejoin="round"/>
</svg>
