<svg width="24" height="24" viewBox="0 0 24 24" fill="none" xmlns="http://www.w3.org/2000/svg">
<path d="M3.27 7.43061L12 12.4806L20.73 7.43061M12 22.5506V12.4706M21 16.4706V8.47061C20.9996 8.11988 20.9071 7.77542 20.7315 7.47177C20.556 7.16812 20.3037 6.91597 20 6.74061L13 2.74061C12.696 2.56507 12.3511 2.47266 12 2.47266C11.6489 2.47266 11.304 2.56507 11 2.74061L4 6.74061C3.69626 6.91597 3.44398 7.16812 3.26846 7.47177C3.09294 7.77542 3.00036 8.11988 3 8.47061V16.4706C3.00036 16.8213 3.09294 17.1658 3.26846 17.4694C3.44398 17.7731 3.69626 18.0252 4 18.2006L11 22.2006C11.304 22.3761 11.6489 22.4686 12 22.4686C12.3511 22.4686 12.696 22.3761 13 22.2006L20 18.2006C20.3037 18.0252 20.556 17.7731 20.7315 17.4694C20.9071 17.1658 20.9996 16.8213 21 16.4706Z" stroke="#191B1E" stroke-width="1.8" stroke-linecap="round" stroke-linejoin="round"/>
</svg>
