<svg width="24" height="24" viewBox="0 0 24 24" fill="none" xmlns="http://www.w3.org/2000/svg">
<g clip-path="url(#clip0_2034_5064)">
<path d="M18.9999 16.9003C20.2151 16.6536 21.2952 15.9641 22.0306 14.9658C22.766 13.9674 23.1043 12.7315 22.9796 11.4978C22.855 10.2641 22.2765 9.12077 21.3563 8.28967C20.4361 7.45858 19.2399 6.99905 17.9999 7.0003H16.7399C16.4086 5.71762 15.764 4.53729 14.8638 3.56529C13.9637 2.59328 12.8363 1.86003 11.5828 1.43136C10.3292 1.0027 8.98891 0.892032 7.68207 1.10931C6.37523 1.32658 5.1428 1.865 4.09544 2.67621C3.04808 3.48742 2.21856 4.54604 1.68137 5.75701C1.14418 6.96799 0.916124 8.29341 1.01769 9.61429C1.11925 10.9352 1.54725 12.2102 2.26326 13.3248C2.97926 14.4394 3.96087 15.3587 5.11993 16.0003M12.9999 11.0003L8.99993 17.0003H14.9999L10.9999 23.0003" stroke="#191B1E" stroke-width="1.8" stroke-linecap="round" stroke-linejoin="round"/>
</g>
<defs>
<clipPath id="clip0_2034_5064">
<rect width="24" height="24" fill="white"/>
</clipPath>
</defs>
</svg>
