<svg width="48" height="48" viewBox="0 0 48 48" fill="none" xmlns="http://www.w3.org/2000/svg">
<path d="M30.9778 4.91602H11.45C9.68199 4.91602 8.25 6.3331 8.25 8.08268V39.7494C8.25 41.4989 9.68199 42.916 11.45 42.916H37.0498C38.8177 42.916 40.2497 41.4989 40.2497 39.7494V14.0914L30.9778 4.91602Z" fill="#E7E9EF"/>
<path d="M34.1785 14.0914C32.4105 14.0914 30.9785 12.6743 30.9785 10.9248V4.91602L40.2504 14.0914H34.1785Z" fill="#CDD1DA"/>
<rect x="1.5" y="19.666" width="32" height="16" rx="4" fill="#B94AF5"/>
<path d="M7.36432 31.666V23.8887H10.2862C12.0694 23.8887 13.0201 24.9736 13.0254 26.4668C13.0201 27.9546 12.0587 29.0342 10.2647 29.0342H8.7608V31.666H7.36432ZM8.7608 27.8848H10.0713C11.1241 27.8794 11.5967 27.2886 11.5967 26.4668C11.5967 25.6343 11.1241 25.0596 10.0713 25.0596H8.7608V27.8848ZM20.105 23.8887V31.666H18.8589L15.1743 26.3486H15.1099V31.666H13.7134V23.8887H14.981L18.644 29.2061H18.7192V23.8887H20.105ZM26.3144 26.3701C26.062 25.543 25.4228 25.0381 24.4775 25.0381C23.226 25.0381 22.3129 26.0156 22.3183 27.7666C22.3129 29.5337 23.2099 30.5166 24.5097 30.5166C25.686 30.5166 26.4326 29.8076 26.454 28.7012H24.6494V27.5947H27.8076V28.5293C27.8076 30.5327 26.4326 31.7734 24.5097 31.7734C22.3613 31.7734 20.9057 30.2427 20.9111 27.7773C20.9057 25.2798 22.4311 23.7812 24.4667 23.7812C26.1801 23.7812 27.5068 24.8447 27.7431 26.3701H26.3144Z" fill="white"/>
</svg>
