<svg width="48" height="48" viewBox="0 0 48 48" fill="none" xmlns="http://www.w3.org/2000/svg">
<path d="M30.9778 4.91602H11.45C9.68199 4.91602 8.25 6.3331 8.25 8.08268V39.7494C8.25 41.4989 9.68199 42.916 11.45 42.916H37.0498C38.8177 42.916 40.2497 41.4989 40.2497 39.7494V14.0914L30.9778 4.91602Z" fill="#E7E9EF"/>
<path d="M34.1785 14.0914C32.4105 14.0914 30.9785 12.6743 30.9785 10.9248V4.91602L40.2504 14.0914H34.1785Z" fill="#CDD1DA"/>
<rect x="1.5" y="19.666" width="32" height="16" rx="4" fill="#6361FC"/>
<path d="M11.4034 23.8887H12.7891V29.3564C12.7891 30.8604 11.7847 31.7734 10.2862 31.7734C8.92193 31.7734 7.87457 31.0322 7.87994 29.6035H9.27643C9.2818 30.2373 9.71148 30.6187 10.3399 30.624C11.0167 30.6187 11.398 30.1836 11.4034 29.3564V23.8887ZM13.7886 31.666V23.8887H16.7104C18.4937 23.8887 19.4443 24.9736 19.4497 26.4668C19.4443 27.9546 18.4829 29.0342 16.689 29.0342H15.1851V31.666H13.7886ZM15.1851 27.8848H16.4956C17.5483 27.8794 18.021 27.2886 18.021 26.4668C18.021 25.6343 17.5483 25.0596 16.4956 25.0596H15.1851V27.8848ZM25.3476 26.3701C25.0952 25.543 24.456 25.0381 23.5107 25.0381C22.2592 25.0381 21.3461 26.0156 21.3515 27.7666C21.3461 29.5337 22.2431 30.5166 23.5429 30.5166C24.7192 30.5166 25.4658 29.8076 25.4872 28.7012H23.6826V27.5947H26.8408V28.5293C26.8408 30.5327 25.4658 31.7734 23.5429 31.7734C21.3945 31.7734 19.9389 30.2427 19.9443 27.7773C19.9389 25.2798 21.4643 23.7812 23.4999 23.7812C25.2133 23.7812 26.54 24.8447 26.7763 26.3701H25.3476Z" fill="white"/>
</svg>
