<svg width="24" height="24" viewBox="0 0 24 24" fill="none" xmlns="http://www.w3.org/2000/svg">
<path d="M9 19.0004C4 20.5004 4 16.5004 2 16.0004M16 22.0004V18.1304C16.0375 17.6536 15.9731 17.1742 15.811 16.7242C15.6489 16.2742 15.3929 15.8638 15.06 15.5204C18.2 15.1704 21.5 13.9804 21.5 8.52043C21.4997 7.12425 20.9627 5.78162 20 4.77043C20.4559 3.54893 20.4236 2.19878 19.91 1.00043C19.91 1.00043 18.73 0.650426 16 2.48043C13.708 1.85925 11.292 1.85925 9 2.48043C6.27 0.650426 5.09 1.00043 5.09 1.00043C4.57638 2.19878 4.54414 3.54893 5 4.77043C4.03013 5.78913 3.49252 7.14389 3.5 8.55043C3.5 13.9704 6.8 15.1604 9.94 15.5504C9.611 15.8904 9.35726 16.2958 9.19531 16.7403C9.03335 17.1849 8.96681 17.6585 9 18.1304V22.0004" stroke="#191B1E" stroke-width="1.8" stroke-linecap="round" stroke-linejoin="round"/>
</svg>
