<svg width="24" height="24" viewBox="0 0 24 24" fill="none" xmlns="http://www.w3.org/2000/svg">
<path d="M17.0576 3.0376C17.3296 2.95741 17.6244 3.01046 17.8516 3.18018C18.0785 3.3501 18.2129 3.61736 18.2129 3.90088V6.16455C20.2374 6.6291 21.748 8.44151 21.748 10.6069C21.7478 12.772 20.2371 14.583 18.2129 15.0474V17.313C18.2128 17.5965 18.0786 17.8638 17.8516 18.0337C17.6244 18.2034 17.3296 18.2564 17.0576 18.1763L8.45801 15.6313V19.605C8.45771 20.6538 7.60737 21.5039 6.55859 21.5044H4.90039C3.85123 21.5044 2.99932 20.6541 2.99902 19.605V14.5083C2.99902 14.4877 3.00059 14.467 3.00195 14.4468C3.00065 14.4271 2.99904 14.4072 2.99902 14.3872V6.82764C2.99902 6.33058 3.40333 5.92725 3.90039 5.92725H7.29199L17.0576 3.0376ZM4.80078 19.605C4.80107 19.66 4.84534 19.7046 4.90039 19.7046H6.55859C6.61326 19.7041 6.65791 19.6597 6.6582 19.605V15.4087H4.80078V19.605ZM7.67773 7.68994C7.59511 7.71436 7.50901 7.727 7.42285 7.72705H4.80078V13.4868H7.42285L7.55176 13.4956C7.59417 13.5018 7.63652 13.5117 7.67773 13.5239L16.4121 16.1069V5.10596L7.67773 7.68994ZM18.2129 13.1665C19.229 12.76 19.948 11.7681 19.9482 10.6069C19.9482 9.44559 19.2291 8.45388 18.2129 8.04736V13.1665Z" fill="#191B1E"/>
</svg>
