<svg width="24" height="24" viewBox="0 0 24 24" fill="none" xmlns="http://www.w3.org/2000/svg">
<path d="M21.9999 4.00001V10M21.9999 10H15.9999M21.9999 10L17.3699 5.64001C15.9905 4.25975 14.1999 3.3652 12.2678 3.09116C10.3358 2.81711 8.36705 3.17843 6.65823 4.12065C4.94942 5.06288 3.59313 6.53496 2.79374 8.31508C1.99436 10.0952 1.79519 12.0869 2.22625 13.9901C2.6573 15.8932 3.69524 17.6047 5.18363 18.8667C6.67203 20.1286 8.53026 20.8726 10.4783 20.9866C12.4263 21.1006 14.3586 20.5783 15.984 19.4985C17.6094 18.4187 18.8399 16.8399 19.4899 15" stroke="#191B1E" stroke-width="1.8" stroke-linecap="round" stroke-linejoin="round"/>
</svg>
