<svg width="60" height="60" viewBox="0 0 60 60" fill="none" xmlns="http://www.w3.org/2000/svg">
<g clip-path="url(#clip0_3352_48538)">
<circle cx="30" cy="30" r="30" fill="#E7E9EF"/>
<path d="M28.1502 25.7224C29.1275 25.7924 30.0784 26.072 30.9382 26.5418C31.7981 27.0116 32.5476 27.6604 33.1345 28.4451C33.4653 28.8873 33.3746 29.5147 32.9324 29.8455C32.4902 30.1761 31.8638 30.0854 31.533 29.6433C31.1178 29.0883 30.5875 28.6289 29.9793 28.2966C29.3712 27.9645 28.6987 27.7671 28.0076 27.7175C27.3165 27.668 26.6226 27.7674 25.9734 28.0095C25.3241 28.2517 24.7339 28.6308 24.2439 29.1209V29.1218L20.7439 32.6218C19.8712 33.532 19.3883 34.7472 19.3992 36.0086C19.4102 37.2758 19.9191 38.4884 20.8152 39.3845C21.7112 40.2805 22.9231 40.7885 24.1902 40.7996C25.4575 40.8106 26.679 40.3236 27.5906 39.4431L29.573 37.4607C29.9635 37.0702 30.5965 37.0702 30.9871 37.4607C31.3775 37.8512 31.3776 38.4843 30.9871 38.8748L28.992 40.8699C28.9879 40.8739 28.9834 40.8776 28.9793 40.8816C27.6906 42.1262 25.9651 42.815 24.1736 42.7996C22.3819 42.784 20.6671 42.0656 19.4002 40.7986C18.1334 39.5317 17.4148 37.8177 17.3992 36.0261C17.3836 34.2345 18.0725 32.5083 19.3172 31.2195L22.8298 27.7068C23.5225 27.014 24.3563 26.4779 25.2742 26.1355C26.1921 25.7932 27.173 25.6525 28.1502 25.7224ZM35.8269 17.6218C37.6185 17.6374 39.3325 18.356 40.5994 19.6228C41.8663 20.8898 42.5848 22.6046 42.6004 24.3963C42.6158 26.1877 41.927 27.9133 40.6824 29.2019C40.6784 29.206 40.6747 29.2106 40.6707 29.2146L37.1707 32.7146C36.478 33.4075 35.6443 33.9434 34.7263 34.2859C33.8083 34.6284 32.8267 34.77 31.8494 34.7C30.8721 34.6299 29.9211 34.3504 29.0613 33.8806C28.2014 33.4108 27.4529 32.761 26.866 31.9763C26.5353 31.5341 26.6259 30.9077 27.0681 30.5769C27.5104 30.2464 28.1368 30.3369 28.4675 30.7791C28.8826 31.3338 29.4123 31.7925 30.0203 32.1248C30.6285 32.4571 31.3016 32.6553 31.9929 32.7048C32.6841 32.7543 33.3779 32.6541 34.0271 32.4119C34.6764 32.1697 35.2657 31.7906 35.7556 31.3006H35.7566L39.2439 27.8132C40.1243 26.9017 40.6114 25.6801 40.6004 24.4129C40.5893 23.1458 40.0812 21.9339 39.1853 21.0379C38.2892 20.1417 37.0766 19.6329 35.8093 19.6218C34.5422 19.6109 33.3214 20.0981 32.4099 20.9783L30.4138 22.9636C30.0222 23.353 29.3882 23.3514 28.9988 22.9597C28.6094 22.5681 28.612 21.9341 29.0037 21.5447L31.0095 19.5506L31.0203 19.5398C32.309 18.2951 34.0353 17.6063 35.8269 17.6218Z" fill="#22252A"/>
</g>
<defs>
<clipPath id="clip0_3352_48538">
<path d="M0 30C0 13.4315 13.4315 0 30 0C46.5685 0 60 13.4315 60 30C60 46.5685 46.5685 60 30 60C13.4315 60 0 46.5685 0 30Z" fill="white"/>
</clipPath>
</defs>
</svg>
