<svg width="24" height="24" viewBox="0 0 24 24" fill="none" xmlns="http://www.w3.org/2000/svg">
<path d="M14.6999 6.29974C14.5166 6.48666 14.414 6.73798 14.414 6.99974C14.414 7.26149 14.5166 7.51281 14.6999 7.69974L16.2999 9.29974C16.4868 9.48296 16.7381 9.58559 16.9999 9.58559C17.2616 9.58559 17.5129 9.48296 17.6999 9.29974L21.4699 5.52974C21.9727 6.64092 22.1249 7.87897 21.9063 9.07888C21.6877 10.2788 21.1086 11.3836 20.2461 12.246C19.3837 13.1084 18.2789 13.6876 17.079 13.9062C15.8791 14.1248 14.641 13.9726 13.5299 13.4697L6.61986 20.3797C6.22203 20.7776 5.68246 21.0011 5.11986 21.0011C4.55725 21.0011 4.01768 20.7776 3.61986 20.3797C3.22203 19.9819 2.99854 19.4423 2.99854 18.8797C2.99854 18.3171 3.22203 17.7776 3.61986 17.3797L10.5299 10.4697C10.027 9.35855 9.87477 8.1205 10.0934 6.92059C10.312 5.72068 10.8911 4.61589 11.7536 3.75346C12.616 2.89102 13.7208 2.3119 14.9207 2.09328C16.1206 1.87465 17.3587 2.0269 18.4699 2.52974L14.7099 6.28974L14.6999 6.29974Z" stroke="#191B1E" stroke-width="1.8" stroke-linecap="round" stroke-linejoin="round"/>
</svg>
