<svg width="24" height="24" viewBox="0 0 24 24" fill="none" xmlns="http://www.w3.org/2000/svg">
<path d="M18.63 14.0001C18.1851 12.3715 17.973 10.6882 18 9.00011C18.0016 7.91318 17.7079 6.84622 17.1503 5.91321C16.5927 4.98019 15.7921 4.21617 14.8341 3.70275C13.876 3.18934 12.7965 2.94581 11.7109 2.99818C10.6252 3.05056 9.57413 3.39686 8.66996 4.00011M6.25996 7.26011C6.08623 7.82373 5.99858 8.41034 5.99996 9.00011C5.99996 16.0001 2.99996 18.0001 2.99996 18.0001H17M2.5 3.50011L12 13.0001L17.5 18.5001L20.5 21.5001" stroke="#191B1E" stroke-width="1.8" stroke-linecap="round" stroke-linejoin="round"/>
<path d="M12 21C13.6569 21 15 19.6569 15 18H9C9 19.6569 10.3431 21 12 21Z" stroke="#191B1E" stroke-width="1.8"/>
</svg>
