<svg width="22" height="23" viewBox="0 0 22 23" fill="none" xmlns="http://www.w3.org/2000/svg">
<path d="M1.8999 4.64456C1.8999 4.23307 2.15196 3.86359 2.53509 3.71348L9.53509 0.970785C10.191 0.713797 10.8999 1.19742 10.8999 1.90187V20.436C10.8999 20.9883 10.4522 21.436 9.8999 21.436H2.8999C2.34762 21.436 1.8999 20.9883 1.8999 20.436V4.64456Z" stroke="#191B1E" stroke-width="1.8" stroke-linejoin="round"/>
<path d="M10.8999 5.85107C10.8999 5.16065 11.5829 4.67795 12.2337 4.90844L19.2337 7.38761C19.633 7.52902 19.8999 7.90665 19.8999 8.33023V20.436C19.8999 20.9883 19.4522 21.436 18.8999 21.436H11.8999C11.3476 21.436 10.8999 20.9883 10.8999 20.436V5.85107Z" stroke="#191B1E" stroke-width="1.8" stroke-linejoin="round"/>
<line x1="4.7999" y1="7.53604" x2="7.9999" y2="7.53604" stroke="#191B1E" stroke-width="1.8" stroke-linecap="round"/>
<line x1="13.7999" y1="10.536" x2="16.9999" y2="10.536" stroke="#191B1E" stroke-width="1.8" stroke-linecap="round"/>
<line x1="13.7999" y1="13.536" x2="16.9999" y2="13.536" stroke="#191B1E" stroke-width="1.8" stroke-linecap="round"/>
<line x1="4.7999" y1="10.536" x2="7.9999" y2="10.536" stroke="#191B1E" stroke-width="1.8" stroke-linecap="round"/>
<path d="M0.899902 21.436H20.8999" stroke="#191B1E" stroke-width="1.8" stroke-linecap="round"/>
</svg>
