<svg width="22" height="24" viewBox="0 0 22 24" fill="none" xmlns="http://www.w3.org/2000/svg">
<path d="M19.6536 6.30518L12.8999 10.2044" stroke="#191B1E" stroke-width="1.8" stroke-linecap="round" stroke-linejoin="round"/>
<path d="M1.90009 6.30518L8.8999 10.3465" stroke="#191B1E" stroke-width="1.8" stroke-linecap="round" stroke-linejoin="round"/>
<path d="M10.9541 13.3999V21.7106" stroke="#191B1E" stroke-width="1.8" stroke-linecap="round" stroke-linejoin="round"/>
<path d="M0.899902 8.27182V15.4318C0.899902 16.7854 1.62096 18.0378 2.79744 18.7083L9.00869 22.2883C10.1852 22.9587 11.6273 22.9587 12.7911 22.2883L19.0024 18.7083C20.1788 18.0378 20.8999 16.7854 20.8999 15.4318V8.27182C20.8999 6.91824 20.1788 5.66587 19.0024 4.99541L12.7911 1.40275C11.6146 0.732287 10.1725 0.732287 9.00869 1.40275L2.79744 4.98276C1.62096 5.65322 0.899902 6.90559 0.899902 8.25917V8.27182Z" stroke="#191B1E" stroke-width="1.8" stroke-linecap="round" stroke-linejoin="round"/>
</svg>
