<svg width="24" height="24" viewBox="0 0 24 24" fill="none" xmlns="http://www.w3.org/2000/svg">
<path d="M12 4.0012H5C4.46957 4.0012 3.96086 4.21192 3.58579 4.58699C3.21071 4.96206 3 5.47077 3 6.0012V19.0012C3 19.5316 3.21071 20.0403 3.58579 20.4154C3.96086 20.7905 4.46957 21.0012 5 21.0012H18C18.5304 21.0012 19.0391 20.7905 19.4142 20.4154C19.7893 20.0403 20 19.5316 20 19.0012V12.0012M18.5 2.5012C18.8978 2.10338 19.4374 1.87988 20 1.87988C20.5626 1.87988 21.1022 2.10338 21.5 2.5012C21.8978 2.89903 22.1213 3.43859 22.1213 4.0012C22.1213 4.56381 21.8978 5.10338 21.5 5.5012L13 14.0012L9 15.0012L10 11.0012L18.5 2.5012Z" stroke="#191B1E" stroke-width="1.8" stroke-linecap="round" stroke-linejoin="round"/>
</svg>
