<svg width="48" height="48" viewBox="0 0 48 48" fill="none" xmlns="http://www.w3.org/2000/svg">
<path d="M30.9778 4.91602H11.45C9.68199 4.91602 8.25 6.3331 8.25 8.08268V39.7494C8.25 41.4989 9.68199 42.916 11.45 42.916H37.0498C38.8177 42.916 40.2497 41.4989 40.2497 39.7494V14.0914L30.9778 4.91602Z" fill="#E7E9EF"/>
<path d="M34.1785 14.0914C32.4105 14.0914 30.9785 12.6743 30.9785 10.9248V4.91602L40.2504 14.0914H34.1785Z" fill="#CDD1DA"/>
<rect x="1.5" y="19.666" width="32" height="16" rx="4" fill="#F94D4A"/>
<path d="M8.35797 31.666V23.8887H11.2798C13.063 23.8887 14.0137 24.9736 14.0191 26.4668C14.0137 27.9546 13.0523 29.0342 11.2584 29.0342H9.75445V31.666H8.35797ZM9.75445 27.8848H11.065C12.1177 27.8794 12.5904 27.2886 12.5904 26.4668C12.5904 25.6343 12.1177 25.0596 11.065 25.0596H9.75445V27.8848ZM17.3496 31.666H14.707V23.8887H17.3926C19.7129 23.8887 21.1147 25.3442 21.1201 27.7666C21.1147 30.1997 19.7129 31.666 17.3496 31.666ZM16.1035 30.4521H17.2744C18.9019 30.4575 19.7236 29.5605 19.7236 27.7666C19.7236 25.9834 18.9019 25.0972 17.3174 25.1025H16.1035V30.4521ZM21.9155 31.666V23.8887H26.8998V25.0596H23.312V27.1865H26.5561V28.3574H23.312V31.666H21.9155Z" fill="white"/>
</svg>
