<svg width="20" height="20" viewBox="0 0 20 20" fill="none" xmlns="http://www.w3.org/2000/svg">
<g clip-path="url(#clip0_7011_12929)">
<path d="M9.98219 0C12.7909 0 15.1603 0.964063 17.0891 2.89281C19.0291 4.83344 20 7.2025 20 10C20 12.8097 19.0472 15.1488 17.1422 17.0175C15.1184 19.0059 12.7319 20 9.98219 20C7.27938 20 4.93437 19.0175 2.94656 17.0531C0.9825 15.0887 0 12.7381 0 10C0 7.26219 0.9825 4.89313 2.94656 2.89312C4.87531 0.964062 7.22 0 9.98219 0ZM10.0178 1.80375C7.74406 1.80375 5.82156 2.60156 4.25 4.19656C2.61875 5.86344 1.80344 7.79812 1.80344 10.0003C1.80344 12.2147 2.61281 14.1316 4.23156 15.7497C5.85063 17.3691 7.77906 18.1781 10.0172 18.1781C12.2431 18.1781 14.1841 17.3634 15.8387 15.7319C17.4103 14.22 18.1959 12.3094 18.1959 9.99969C18.1959 7.72594 17.3981 5.79187 15.8034 4.19625C14.2084 2.60125 12.2797 1.80375 10.0178 1.80375ZM12.6966 7.51781V11.6069H11.5541V16.4637H8.44656V11.6072H7.30406V7.51781C7.30406 7.33906 7.36656 7.1875 7.49125 7.0625C7.61656 6.93781 7.76844 6.875 7.94656 6.875H12.0541C12.2206 6.875 12.3697 6.9375 12.5003 7.0625C12.6306 7.1875 12.6966 7.33937 12.6966 7.51781ZM8.60687 4.94656C8.60687 4.00656 9.07094 3.53594 10 3.53594C10.9291 3.53594 11.3928 4.00594 11.3928 4.94656C11.3928 5.875 10.9284 6.33937 10 6.33937C9.07156 6.33937 8.60687 5.875 8.60687 4.94656Z" fill="black"/>
</g>
<defs>
<clipPath id="clip0_7011_12929">
<rect width="20" height="20" fill="white"/>
</clipPath>
</defs>
</svg>
