<svg width="24" height="24" viewBox="0 0 24 24" fill="none" xmlns="http://www.w3.org/2000/svg">
<path d="M2 4.00044V10.0004M2 10.0004H8M2 10.0004L6.64 5.64044C8.02091 4.26186 9.81245 3.36941 11.7447 3.09755C13.6769 2.8257 15.6451 3.18917 17.3528 4.1332C19.0605 5.07723 20.4152 6.55068 21.2126 8.33154C22.0101 10.1124 22.2072 12.1042 21.7742 14.0068C21.3413 15.9094 20.3017 17.6198 18.8121 18.8802C17.3226 20.1406 15.4637 20.8828 13.5157 20.9949C11.5677 21.107 9.63598 20.583 8.01166 19.5018C6.38734 18.4206 5.15839 16.8408 4.51 15.0004" stroke="#191B1E" stroke-width="1.8" stroke-linecap="round" stroke-linejoin="round"/>
</svg>
