<svg width="60" height="60" viewBox="0 0 60 60" fill="none" xmlns="http://www.w3.org/2000/svg">
<g clip-path="url(#clip0_3352_48539)">
<path d="M60 30C60 46.5685 46.5685 60 30 60C13.4315 60 0 46.5685 0 30C0 13.4315 13.4315 0 30 0C46.5685 0 60 13.4315 60 30Z" fill="black"/>
<g clip-path="url(#clip1_3352_48539)">
<path d="M26.8744 24.4696C25.05 24.4696 23.3594 25.0415 21.9712 26.0156V18.8411H17.9419V41.1242H21.9712V40.0177C23.3594 40.9915 25.05 41.5637 26.8744 41.5637C31.5948 41.5637 35.4213 37.7372 35.4213 33.0168C35.4213 28.2964 31.5945 24.4696 26.8744 24.4696ZM26.4906 37.8307C23.917 37.8307 21.8307 35.6737 21.8307 33.0132C21.8307 30.3526 23.917 28.1957 26.4906 28.1957C29.0643 28.1957 31.1506 30.3526 31.1506 33.0132C31.1506 35.6737 29.0643 37.8307 26.4906 37.8307ZM40.3302 17.019H41.9419V42.981H40.3302V17.019Z" fill="#03C75A" stroke="#03C75A" stroke-width="0.0259619" stroke-miterlimit="10"/>
</g>
</g>
<defs>
<clipPath id="clip0_3352_48539">
<path d="M0 30C0 13.4315 13.4315 0 30 0C46.5685 0 60 13.4315 60 30C60 46.5685 46.5685 60 30 60C13.4315 60 0 46.5685 0 30Z" fill="white"/>
</clipPath>
<clipPath id="clip1_3352_48539">
<rect width="24" height="25.9619" fill="white" transform="translate(17.9419 17.019)"/>
</clipPath>
</defs>
</svg>
