<svg width="24" height="24" viewBox="0 0 24 24" fill="none" xmlns="http://www.w3.org/2000/svg">
<path d="M8.09 13.51L14.92 17.49M14.91 6.51L8.09 10.49M20.5 5C20.5 6.65685 19.1569 8 17.5 8C15.8431 8 14.5 6.65685 14.5 5C14.5 3.34315 15.8431 2 17.5 2C19.1569 2 20.5 3.34315 20.5 5ZM8.5 12C8.5 13.6569 7.15685 15 5.5 15C3.84315 15 2.5 13.6569 2.5 12C2.5 10.3431 3.84315 9 5.5 9C7.15685 9 8.5 10.3431 8.5 12ZM20.5 19C20.5 20.6569 19.1569 22 17.5 22C15.8431 22 14.5 20.6569 14.5 19C14.5 17.3431 15.8431 16 17.5 16C19.1569 16 20.5 17.3431 20.5 19Z" stroke="#191B1E" stroke-width="1.8" stroke-linecap="round" stroke-linejoin="round"/>
</svg>
