<svg width="60" height="60" viewBox="0 0 60 60" fill="none" xmlns="http://www.w3.org/2000/svg">
<g clip-path="url(#clip0_3352_48541)">
<path d="M60 30C60 46.5685 46.5685 60 30 60C13.4315 60 0 46.5685 0 30C0 13.4315 13.4315 0 30 0C46.5685 0 60 13.4315 60 30Z" fill="#FBE300"/>
<path d="M30 39.9376C37.732 39.9376 44 34.9232 44 28.7376C44 22.552 37.732 17.5376 30 17.5376C22.268 17.5376 16 22.552 16 28.7376C16 32.5821 18.4212 35.9741 22.1103 37.991L20.9 43.4376L27.1268 39.7015C28.0542 39.8563 29.0152 39.9376 30 39.9376Z" fill="#181600"/>
</g>
<defs>
<clipPath id="clip0_3352_48541">
<path d="M0 30C0 13.4315 13.4315 0 30 0C46.5685 0 60 13.4315 60 30C60 46.5685 46.5685 60 30 60C13.4315 60 0 46.5685 0 30Z" fill="white"/>
</clipPath>
</defs>
</svg>
