<svg width="60" height="60" viewBox="0 0 60 60" fill="none" xmlns="http://www.w3.org/2000/svg">
<path d="M0 30C0 13.4315 13.4315 0 30 0C46.5685 0 60 13.4315 60 30C60 46.5685 46.5685 60 30 60C13.4315 60 0 46.5685 0 30Z" fill="#1877F2"/>
<path d="M45.0915 30.0917C45.0915 21.7568 38.3348 15 29.9999 15C21.665 15 14.9082 21.7568 14.9082 30.0917C14.9082 37.6242 20.427 43.8678 27.6418 45V34.4541H23.8099V30.0917H27.6418V26.7668C27.6418 22.9844 29.8949 20.8952 33.3421 20.8952C34.9928 20.8952 36.7204 21.1899 36.7204 21.1899V24.9039H34.8174C32.9427 24.9039 32.3579 26.0673 32.3579 27.262V30.0917H36.5435L35.8744 34.4541H32.3579V45C39.5728 43.8678 45.0915 37.6242 45.0915 30.0917Z" fill="white"/>
</svg>
