<svg width="24" height="24" viewBox="0 0 24 24" fill="none" xmlns="http://www.w3.org/2000/svg">
<path d="M1.23975 21.7539H22.5545" stroke="#191B1E" stroke-width="1.8" stroke-linecap="round" stroke-linejoin="round"/>
<path d="M22.7125 7.64421L19.2335 2.24707H4.87192L1.38814 7.64421C1.38814 7.64421 0.793937 10.9644 3.86081 10.9644C3.86081 10.9644 6.59224 11.0729 6.68329 7.93035C6.66412 8.58156 6.75037 10.9644 9.1272 10.9644C9.1272 10.9644 12.0551 11.1469 12.0551 7.78728C12.0551 11.1469 14.983 10.9644 14.983 10.9644C17.3598 10.9644 17.4461 8.58156 17.4269 7.93035C17.518 11.0729 20.2494 10.9644 20.2494 10.9644C23.3163 10.9644 22.7221 7.64421 22.7221 7.64421H22.7125Z" stroke="#191B1E" stroke-width="1.8" stroke-linecap="round" stroke-linejoin="round"/>
<path d="M4.16064 10.9648V21.9648" stroke="#191B1E" stroke-width="1.8" stroke-linejoin="round"/>
<path d="M20.1606 10.9648V21.9648" stroke="#191B1E" stroke-width="1.8" stroke-linejoin="round"/>
<path d="M14.5612 21.7536V16.5686C14.5612 15.0836 13.3919 13.8799 11.9495 13.8799C10.5071 13.8799 9.33789 15.0836 9.33789 16.5686V21.7536" stroke="#191B1E" stroke-width="1.8" stroke-linecap="round" stroke-linejoin="round"/>
</svg>
