<svg width="24" height="20" viewBox="0 0 24 20" fill="none" xmlns="http://www.w3.org/2000/svg">
<path d="M22.8999 0.910446C21.9423 1.58592 20.882 2.10256 19.7599 2.44045C19.1576 1.74796 18.3572 1.25714 17.4669 1.03437C16.5766 0.811607 15.6394 0.867642 14.782 1.1949C13.9246 1.52216 13.1883 2.10485 12.6729 2.86416C12.1574 3.62348 11.8876 4.52278 11.8999 5.44045V6.44045C10.1425 6.48601 8.40118 6.09626 6.83091 5.30589C5.26065 4.51553 3.91022 3.34908 2.8999 1.91045C2.8999 1.91045 -1.1001 10.9104 7.8999 14.9104C5.84043 16.3084 3.38706 17.0094 0.899902 16.9104C9.8999 21.9104 20.8999 16.9104 20.8999 5.41045C20.899 5.1319 20.8722 4.85404 20.8199 4.58045C21.8405 3.57394 22.5607 2.30316 22.8999 0.910446Z" stroke="#191B1E" stroke-width="1.8" stroke-linecap="round" stroke-linejoin="round"/>
</svg>
