<svg width="24" height="20" viewBox="0 0 24 20" fill="none" xmlns="http://www.w3.org/2000/svg">
<path d="M15.9052 13.8979L11.9052 9.89793M11.9052 9.89793L7.90523 13.8979M11.9052 9.89793V18.8979M20.2952 16.2879C21.2706 15.7562 22.0411 14.9148 22.4851 13.8966C22.9291 12.8783 23.0214 11.7412 22.7474 10.6646C22.4734 9.58808 21.8487 8.63344 20.9719 7.95138C20.0951 7.26931 19.0161 6.89867 17.9052 6.89793H16.6452C16.3425 5.72717 15.7784 4.64027 14.9952 3.71893C14.212 2.79758 13.2301 2.06578 12.1233 1.57854C11.0166 1.0913 9.81378 0.861292 8.60535 0.905816C7.39692 0.950339 6.2143 1.26823 5.14641 1.8356C4.07852 2.40296 3.15315 3.20504 2.43986 4.18151C1.72657 5.15799 1.24392 6.28347 1.02821 7.47333C0.812503 8.66319 0.869339 9.88646 1.19445 11.0512C1.51956 12.2159 2.10448 13.2918 2.90523 14.1979" stroke="#191B1E" stroke-width="1.8" stroke-linecap="round" stroke-linejoin="round"/>
</svg>
