<svg width="22" height="18" viewBox="0 0 22 18" fill="none" xmlns="http://www.w3.org/2000/svg">
<path d="M8.4899 1.49037C8.72221 1.25669 9.00865 1.08402 9.32377 0.987714C9.6389 0.891412 9.97293 0.874459 10.2962 0.938364C10.6194 1.00227 10.9219 1.14505 11.1767 1.35402C11.4314 1.56299 11.6306 1.83166 11.7565 2.13617C11.8824 2.44067 11.9312 2.77156 11.8984 3.09944C11.8656 3.42731 11.7523 3.742 11.5686 4.01553C11.3848 4.28907 11.1364 4.51297 10.8453 4.66734C10.5541 4.82171 10.2294 4.90176 9.8999 4.90037H0.899902M11.4899 16.3104C11.7222 16.5441 12.0087 16.7167 12.3238 16.813C12.6389 16.9093 12.9729 16.9263 13.2962 16.8624C13.6194 16.7985 13.9219 16.6557 14.1767 16.4467C14.4314 16.2378 14.6306 15.9691 14.7565 15.6646C14.8824 15.3601 14.9312 15.0292 14.8984 14.7013C14.8656 14.3734 14.7523 14.0587 14.5686 13.7852C14.3848 13.5117 14.1364 13.2878 13.8453 13.1334C13.5541 12.979 13.2294 12.899 12.8999 12.9004H0.899902M16.6299 4.63037C16.9208 4.34026 17.2786 4.12629 17.6718 4.00739C18.0651 3.88848 18.4815 3.86831 18.8844 3.94866C19.2873 4.02901 19.6641 4.20739 19.9816 4.46804C20.2992 4.72869 20.5476 5.06357 20.7049 5.44306C20.8622 5.82256 20.9236 6.23497 20.8835 6.64382C20.8435 7.05267 20.7034 7.44537 20.4755 7.78717C20.2476 8.12898 19.939 8.40936 19.577 8.60352C19.215 8.79768 18.8107 8.89964 18.3999 8.90037H0.899902" stroke="#191B1E" stroke-width="1.8" stroke-linecap="round" stroke-linejoin="round"/>
</svg>
