<svg width="24" height="18" viewBox="0 0 24 18" fill="none" xmlns="http://www.w3.org/2000/svg">
<path d="M22.4405 3.32039C22.3217 2.8458 22.0798 2.41096 21.7391 2.0598C21.3985 1.70863 20.9712 1.45358 20.5005 1.32039C18.7805 0.900391 11.9005 0.900391 11.9005 0.900391C11.9005 0.900391 5.02047 0.900391 3.30047 1.36039C2.82972 1.49358 2.40245 1.74863 2.06182 2.0998C1.72119 2.45096 1.47926 2.8858 1.36047 3.36039C1.04569 5.10595 0.89171 6.8767 0.900474 8.65039C0.889253 10.4374 1.04324 12.2217 1.36047 13.9804C1.49143 14.4402 1.73878 14.8585 2.07862 15.1949C2.41846 15.5312 2.83929 15.7742 3.30047 15.9004C5.02047 16.3604 11.9005 16.3604 11.9005 16.3604C11.9005 16.3604 18.7805 16.3604 20.5005 15.9004C20.9712 15.7672 21.3985 15.5121 21.7391 15.161C22.0798 14.8098 22.3217 14.375 22.4405 13.9004C22.7528 12.168 22.9068 10.4107 22.9005 8.65039C22.9117 6.86335 22.7577 5.07909 22.4405 3.32039Z" stroke="#191B1E" stroke-width="1.8" stroke-linecap="round" stroke-linejoin="round"/>
<path d="M9.65047 11.9204L15.4005 8.65039L9.65047 5.38039V11.9204Z" stroke="#191B1E" stroke-width="1.8" stroke-linecap="round" stroke-linejoin="round"/>
</svg>
